<?xml version="1.0" encoding="utf-8"?>
<!-- Generator: Adobe Illustrator 15.0.0, SVG Export Plug-In . SVG Version: 6.00 Build 0)  -->
<!DOCTYPE svg PUBLIC "-//W3C//DTD SVG 1.1//EN" "http://www.w3.org/Graphics/SVG/1.1/DTD/svg11.dtd">
<svg version="1.1" id="Layer_1" xmlns="http://www.w3.org/2000/svg" xmlns:xlink="http://www.w3.org/1999/xlink" x="0px" y="0px"
	 width="240.294px" height="212.863px" viewBox="0 0 240.294 212.863" enable-background="new 0 0 240.294 212.863"
	 xml:space="preserve">
<g>
	<path fill="#FFFFFF" stroke="#FFFFFF" stroke-miterlimit="10" d="M4.681,88.885c0,1.596,0,6.612,2.046,3.306
		c3.554-5.7,10.661-20.18,17.014-35.458c0.215-0.456,0.861-0.228,0.646,0.343c-6.353,15.277-13.46,29.529-17.121,35.458
		c-1.938,3.192-4.738,2.736-6.03-0.798C-1.888,82.956,1.666,64.6,3.604,54.681c2.046-10.604,4.307-21.549,7.538-31.81
		c1.185-3.762,4.307-12.542,8.614-18.014c2.154-2.622,4.63-4.446,7.107-4.789c2.8-0.342,3.984,0.57,4.2,3.762
		c0.108,1.938-0.107,4.561-0.646,7.525c-2.261,12.997-10.337,34.09-21.213,43.211C7.05,65.512,4.681,77.825,4.681,88.885z
		 M9.418,53.312c10.445-9.235,17.983-29.53,20.244-42.071c0.539-2.964,0.754-5.473,0.646-7.297
		c-0.215-2.964-1.077-3.876-3.338-1.824C17.925,10.671,12.003,39.973,9.418,53.312z"/>
	<path fill="#FFFFFF" stroke="#FFFFFF" stroke-miterlimit="10" d="M68.21,57.075l-1.292,2.736
		c-3.23,6.84-9.153,19.154-11.952,22.688c-0.97,1.14-1.831,1.596-3.123,1.14c-7.537-2.622-3.123-23.145-2.262-28.275
		c1.938-10.831-3.015-0.798-4.738,2.736c-3.338,6.841-5.707,12.998-5.922,13.568c-0.969,2.394-5.276,2.052-5.276-0.229
		c0.108-3.42,3.23-19.61-0.431-11.287c-1.831,4.219-3.446,8.893-5.276,13.34c-0.754,1.71-1.4,3.534-3.554,3.42
		c-3.23-0.114-3.553-3.99-3.123-7.068c0.646-5.131,1.723-10.604,2.692-15.393c0.539-2.166,6.03-2.166,5.6,0
		c-0.108,0.342-5.492,26.338-2.584,19.496c1.938-4.674,3.661-9.69,5.6-14.251c0.861-2.167,2.369-4.219,4.091-4.104
		c4.846,0.342,3.23,9.463,2.692,12.883c1.077-2.736,2.907-6.727,4.846-10.717c0.97-1.938,3.446-7.068,4.846-8.438
		c0.97-0.798,1.938-0.912,3.23-0.342c3.338,1.597,3.015,7.069,2.477,10.147c-1.399,9.121-3.122,20.751-1.938,23.373
		c0.432,1.026,1.185,0,1.615-0.456c2.692-3.535,8.723-15.962,11.953-22.689l1.184-2.622C67.78,56.276,68.426,56.618,68.21,57.075z"
		/>
</g>
</svg>
