<?xml version="1.0" encoding="UTF-8"?>
<!DOCTYPE svg  PUBLIC '-//W3C//DTD SVG 20010904//EN'  'http://www.w3.org/TR/2001/REC-SVG-20010904/DTD/svg10.dtd'>
<svg width="125pt" height="125pt" version="1.0" viewBox="0 0 125.000000 125.000000" xmlns="http://www.w3.org/2000/svg">
<metadata>Created by potrace 1.15, written by Peter Selinger 2001-2017</metadata>
<g transform="translate(0 125) scale(.1 -.1)">
<path d="m367 958c-50-62-69-142-74-323l-5-150-44-58c-24-31-44-62-44-67 0-18-133-145-170-163-29-14-31-17-12-17 32 0 124 71 159 122 95 140 113 159 113 119 0-30 39-179 57-216 33-68 71-39 113 86 11 32 32 84 46 116 28 60 111 156 157 179 25 13 28 13 33-3 3-10 10-28 16-39 14-29 5-107-20-174-25-68-33-205-11-205 14 0 18 15 43 175l15 95 71 68c38 37 76 67 84 67 7 0 22-17 32-37 15-32 17-62 15-195-1-94 2-158 7-158 16 0 23 45 21 133-1 94 22 189 55 225 19 21 67 52 81 52 3 1 12 3 20 6 8 4 22 4 30 0 32-12 39-58 40-233 0-95 3-165 7-155 11 28 9 285-3 345l-12 57h-39c-78 0-153-48-164-107-11-61-26-54-39 17-15 88-53 89-143 5-33-30-62-55-66-55-3 0-6 20-6 44 0 25-4 48-10 51-5 3-10 15-10 26 0 45-73 15-139-57-56-62-71-90-112-205-33-96-65-152-81-143-14 9-39 75-59 157-30 124-32 117 67 253 84 115 113 195 114 307 0 79-11 97-60 97-33 0-43-6-73-42zm105 15c32-29 17-168-28-255-23-45-134-208-142-208-9 0 6 274 16 300 5 14 15 43 21 65 12 45 71 115 97 115 10 0 26-7 36-17z"/>
</g>
</svg>
