<?xml version="1.0" encoding="UTF-8"?>
<svg width="86px" height="118px" viewBox="0 0 86 118" version="1.1" xmlns="http://www.w3.org/2000/svg" xmlns:xlink="http://www.w3.org/1999/xlink">
    <title>Logo</title>
    <desc>Created with Sketch.</desc>
    <defs></defs>
    <g id="Symbols" stroke="none" stroke-width="1" fill="none" fill-rule="evenodd">
        <g id="Page/Landing" transform="translate(-640.000000, -269.000000)" fill="#FFFFFF" stroke="#FFFFFF">
            <g id="Logo" transform="translate(640.000000, 270.000000)">
                <g id="logo" transform="translate(1.000000, 0.000000)">
                    <path d="M5.7211368,108.901073 C5.7211368,110.856487 5.7211368,117.002075 8.2218887,112.951574 C12.5658145,105.967952 21.2524439,88.2271008 29.0174863,69.5085427 C29.280273,68.949853 30.0698555,69.2291979 29.8070688,69.9287853 C22.0420264,88.6461182 13.355397,106.107624 8.88068893,113.371817 C6.51194153,117.282645 3.08960268,116.723955 1.51043775,112.394109 C-2.30791461,101.636881 2.03601121,79.1471667 4.40475861,66.9944387 C6.9055105,54.0024509 9.66904913,40.5926709 13.6181837,28.0209256 C15.0665664,23.4117349 18.8824742,12.6545062 24.1467648,5.95022886 C26.7795211,2.73776262 29.8058465,0.503003489 32.8333941,0.0827609555 C36.255733,-0.336256381 37.7028934,0.781123183 37.9669024,4.69195166 C38.0989069,7.06638323 37.8361202,10.2800747 37.1773199,13.9115583 C34.4137813,29.8354422 24.5427782,55.6785202 11.2494363,66.8535411 C8.61667993,80.2645462 5.7211368,95.3503956 5.7211368,108.901073 Z M11.5110008,65.3171442 C24.277547,54.0024509 33.4909721,29.13708 36.2545107,13.7718858 C36.913311,10.1404022 37.1760977,7.06638323 37.0440932,4.8316241 C36.7813065,1.20014052 35.727715,0.0827609555 32.9641764,2.59686497 C21.9087996,13.0735236 14.6705529,48.9742429 11.5110008,65.3171442 Z" id="Shape" fill-rule="nonzero"></path>
                    <path d="M83.9454574,69.3287635 L82.3285435,72.6717969 C78.2862587,81.0293804 70.8737346,96.0754743 67.3708383,100.393559 C66.1569014,101.78649 65.0793759,102.343662 63.462462,101.78649 C54.030047,98.5827494 59.5540857,73.5063334 60.6316112,67.2381458 C63.0569821,54.0040834 56.8583949,66.2630944 54.7020925,70.5811792 C50.5246477,78.9399845 47.5598884,86.4630315 47.2908199,87.1594968 C46.0781344,90.084651 40.6880042,89.6667718 40.6880042,86.8796888 C40.8231642,82.7008971 44.730289,62.9188391 40.1486157,73.0884542 C37.8571534,78.2435192 35.836011,83.9545346 33.5458001,89.3881857 C32.6021831,91.4775816 31.7937262,93.7062705 29.0980353,93.5669774 C25.0557505,93.4276844 24.651522,88.6917204 25.189659,84.9308078 C25.998116,78.6613984 27.3459614,71.9741097 28.5586469,66.1225794 C29.2331953,63.4760113 36.1050795,63.4760113 35.5669425,66.1225794 C35.4317825,66.5404586 28.6938068,98.3041633 32.3331146,89.9441361 C34.7584855,84.2331207 36.9147879,78.1042261 39.3414103,72.531282 C40.4189357,69.883492 42.3061696,67.376217 44.4612205,67.5167319 C50.5258992,67.9346111 48.5035053,79.0792776 47.8302083,83.2580693 C49.1780538,79.9150359 51.4682646,75.038557 53.894887,70.1633 C55.1088239,67.795318 58.2074918,61.5271304 59.9595657,59.85317 C61.1735026,58.8781186 62.3849366,58.7388255 64.0018505,59.4352908 C68.1792953,61.3866155 67.7750668,68.0726823 67.1017698,71.8335948 C65.3509474,82.9782613 63.194645,97.1885969 64.6763989,100.392337 C65.2170389,101.645975 66.1594043,100.392337 66.6975413,99.835165 C70.0665292,95.5158584 77.6142132,80.3316932 81.656498,72.1121809 L83.138252,68.9084406 C83.4073205,68.3524902 84.2157774,68.7703694 83.9454574,69.3287635 Z" id="Shape" fill-rule="nonzero"></path>
                </g>
            </g>
        </g>
    </g>
</svg>